<svg width="30" height="30" xmlns="http://www.w3.org/2000/svg">
  <rect width="30" height="30" rx="5" ry="5" fill="#000000"/>
  <path fill="#ffffff" d="M15.152,1.462c-7.247,0-13.127,5.88-13.127,13.127c0,5.796,3.751,10.706,8.965,12.468c0.654,0.12,0.89-0.283,0.89-0.633c0-0.313-0.012-1.139-0.017-2.234c-3.65,0.794-4.42-1.757-4.42-1.757c-0.596-1.519-1.455-1.927-1.455-1.927c-1.19-0.814,0.09-0.797,0.09-0.797c1.316,0.093,2.009,1.35,2.009,1.35c1.168,2.004,3.065,1.424,3.819,1.089c0.12-0.845,0.454-1.423,0.826-1.746c-2.894-0.329-5.932-1.447-5.932-6.444c0-1.426,0.51-2.592,1.348-3.51c-0.135-0.328-0.585-1.664,0.127-3.464c0,0,1.101-0.352,3.6,1.339c1.044-0.29,2.16-0.434,3.27-0.439c1.109,0.005,2.125,0.149,3.17,0.439c2.498-1.691,3.598-1.339,3.598-1.339c0.714,1.8,0.265,3.136,0.13,3.464c0.838,0.918,1.347,2.084,1.347,3.51c0,4.006-2.041,6.112-7.94,6.428c0.625,0.404,1.185,1.194,1.185,2.412c0,1.741-0.016,3.149-0.016,3.579c0,0.351,0.231,0.756,0.895,0.631c5.211-1.762,8.959-6.672,8.959-12.468C28.279,7.342,22.399,1.462,15.152,1.462z"/>
</svg>