<svg width="30" height="30" xmlns="http://www.w3.org/2000/svg">
  <circle cx="15" cy="15" r="15" fill="#0088CC"/>
  <path fill="#FFFFFF" d="M20.69,3.31c-0.09-0.09-0.22-0.13-0.34-0.11c-0.11,0.02-6.91,2.11-7.25,2.23c-0.14,0.03-0.29,0.03-0.42-0.05 c-0.17-0.11-0.28-0.29-0.28-0.49v-2.97c0-0.28,0.22-0.5,0.5-0.5c0.07,0,0.15,0.02,0.21,0.06l7.79,4.44 c0.09,0.05,0.17,0.12,0.24,0.2l3.69,5.17c0.14,0.2,0.11,0.47-0.06,0.65c-0.16,0.18-0.42,0.2-0.61,0.06l-2.39-1.34l-2.51,2.35 l5.97,1.45c0.24,0.06,0.44,0.23,0.54,0.47c0.11,0.24,0.09,0.51-0.04,0.73c-0.2,0.37-0.68,0.54-1.05,0.34l-6.43-2.93l-4.58,2.14 c-0.07,0.03-0.14,0.07-0.21,0.11c-0.4,0.2-0.88,0.07-1.18-0.28l-6.94-5.77L1.79,19.7c-0.11-0.1-0.2-0.23-0.26-0.37 c-0.1-0.23-0.1-0.49,0-0.71l3.69-8.61L1.44,8.48c-0.31-0.35-0.42-0.84-0.27-1.29s0.49-0.76,0.94-0.86l7.63-1.86l2.9-6.34 c0.11-0.24,0.29-0.46,0.52-0.64c0.22-0.18,0.49-0.29,0.77-0.29c0.23,0,0.45,0.07,0.64,0.2l15.71,8.95l-5.16,6.06L20.69,3.31z"/>
</svg>
